<?xml version="1.0" encoding="UTF-8" standalone="no"?>
<!-- Created with Inkscape (http://www.inkscape.org/) -->

<svg
   version="1.1"
   id="svg1"
   width="363.54736"
   height="120"
   viewBox="0 0 363.54736 120"
   xmlns:xlink="http://www.w3.org/1999/xlink"
   xmlns="http://www.w3.org/2000/svg"
   xmlns:svg="http://www.w3.org/2000/svg">
  <defs
     id="defs1">
   
    <clipPath
       clipPathUnits="userSpaceOnUse"
       id="clipPath192">
      <path
         d="M 0,612 H 792 V 0 H 0 Z"
         transform="translate(-384.89761,-276.82131)"
         id="path192" />
    </clipPath>
    <clipPath
       clipPathUnits="userSpaceOnUse"
       id="clipPath194">
      <path
         d="M 0,612 H 792 V 0 H 0 Z"
         transform="translate(-429.44191,-278.6596)"
         id="path194" />
    </clipPath>
    <clipPath
       clipPathUnits="userSpaceOnUse"
       id="clipPath196">
      <path
         d="M 0,612 H 792 V 0 H 0 Z"
         transform="translate(-504.26994,-278.02041)"
         id="path196" />
    </clipPath>
    <linearGradient
       x1="0"
       y1="0"
       x2="1"
       y2="0"
       gradientUnits="userSpaceOnUse"
       gradientTransform="matrix(0,-90,-90,0,300.28809,351)"
       spreadMethod="pad"
       id="linearGradient198">
      <stop
         style="stop-opacity:1;stop-color:#a555c6 icc-color(sRGB-IEC61966-2.1, 0.64704895, 0.33332825, 0.77645874);"
         offset="0"
         id="stop196" />
      <stop
         style="stop-opacity:1;stop-color:#264ddb icc-color(sRGB-IEC61966-2.1, 0.14901733, 0.30195618, 0.85881042);"
         offset="0.96648"
         id="stop197" />
      <stop
         style="stop-opacity:1;stop-color:#264ddb icc-color(sRGB-IEC61966-2.1, 0.14901733, 0.30195618, 0.85881042);"
         offset="1"
         id="stop198" />
    </linearGradient>
  </defs>
  <g
     id="layer-MC0"
     transform="translate(-5726.2266,-348)">
    <path
       id="path191"
       d="m 0,0 c -17.188,0 -27.819,11.911 -27.819,28.939 0,17.827 10.872,29.419 27.74,29.419 12.071,0 21.902,-4.957 25.02,-19.986 0.081,-0.32 -0.158,-0.639 -0.479,-0.639 H 13.83 c -0.32,0 -0.719,0.24 -0.8,0.639 -1.517,6.795 -5.996,10.632 -13.269,10.632 -9.754,0 -15.029,-7.514 -15.029,-19.985 0,-12.471 5.436,-19.666 14.948,-19.666 7.835,0 12.073,4.238 13.591,11.912 0,0.399 0.399,0.639 0.72,0.639 h 10.872 c 0.319,0 0.56,-0.32 0.479,-0.639 C 22.305,5.916 13.192,0 0,0"
       style="fill:#000000;fill-opacity:1;fill-rule:nonzero;stroke:none"
       transform="matrix(1.3333333,0,0,-1.3333333,5893.1968,446.90493)"
       clip-path="url(#clipPath192)" />
    <path
       id="path193"
       d="m 0,0 c 0,-0.32 -0.319,-0.639 -0.639,-0.639 h -9.673 c -0.32,0 -0.64,0.319 -0.64,0.639 v 54.68 c 0,0.321 0.32,0.64 0.64,0.64 H 4.557 c 0.399,0 0.72,-0.24 0.879,-0.64 l 14.95,-40.29 14.069,40.29 c 0.161,0.4 0.481,0.64 0.879,0.64 h 13.91 c 0.32,0 0.64,-0.319 0.64,-0.64 V 0 c 0,-0.32 -0.32,-0.639 -0.64,-0.639 H 38.372 c -0.318,0 -0.638,0.319 -0.638,0.639 V 38.693 L 24.542,0 c -0.159,-0.399 -0.479,-0.639 -0.879,-0.639 h -8.314 c -0.4,0 -0.719,0.24 -0.878,0.639 L 0,40.291 Z"
       style="fill:#000000;fill-opacity:1;fill-rule:nonzero;stroke:none"
       transform="matrix(1.3333333,0,0,-1.3333333,5952.5892,444.45387)"
       clip-path="url(#clipPath194)" />
    <path
       id="path195"
       d="m 0,0 c -0.32,0 -0.639,0.319 -0.639,0.639 v 46.287 h -15.43 c -0.319,0 -0.64,0.32 -0.64,0.64 v 7.753 c 0,0.321 0.321,0.641 0.64,0.641 H 27.42 c 0.32,0 0.64,-0.32 0.64,-0.641 v -7.753 c 0,-0.32 -0.32,-0.64 -0.64,-0.64 H 11.99 V 0.639 C 11.99,0.319 11.671,0 11.352,0 Z"
       style="fill:#000000;fill-opacity:1;fill-rule:nonzero;stroke:none"
       transform="matrix(1.3333333,0,0,-1.3333333,6052.3599,445.30613)"
       clip-path="url(#clipPath196)" />
    <path
       id="path198"
       d="m 279.221,342.533 c -6.676,-3.69 -14.284,-6.955 -17.713,-13.99 v 0 c -3.042,-6.243 -1.391,-14.422 -1.391,-22.78 v 0 c 0,-8.165 -1.568,-16.313 1.592,-22.55 v 0 c 3.471,-6.847 11.077,-10.037 17.718,-13.72 v 0 C 285.53,266.107 291.992,261 300.232,261 v 0 c 8.238,0 14.713,5.107 20.833,8.492 v 0 c 6.655,3.68 14.279,6.859 17.769,13.7 v 0 c 3.182,6.24 1.632,14.398 1.632,22.571 v 0 c 0,8.412 1.637,16.59 -1.405,22.81 v 0 c -3.454,7.06 -11.093,10.3 -17.772,13.971 v 0 C 315.114,345.937 308.553,351 300.232,351 v 0 c -8.347,0 -14.876,-5.076 -21.011,-8.467 m 6.84,-63.373 c -3.609,2.614 -3.65,8.424 -5.34,13.3 v 0 c -1.377,3.972 -5.455,8.063 -5.455,13.303 v 0 c 0,5.316 4.042,9.488 5.352,13.499 v 0 c 1.634,5.004 1.596,10.851 5.19,13.509 v 0 c 3.546,2.623 9.054,0.897 14.424,0.897 v 0 c 5.344,0 10.851,1.694 14.409,-0.946 v 0 c 3.605,-2.676 3.594,-8.539 5.257,-13.488 v 0 c 1.355,-4.032 5.418,-8.195 5.418,-13.471 v 0 c 0,-5.249 -4.064,-9.344 -5.414,-13.306 v 0 c -1.667,-4.898 -1.68,-10.699 -5.273,-13.309 v 0 c -3.544,-2.574 -9.007,-0.817 -14.279,-0.817 v 0 c -3.029,0 -6.127,-0.58 -8.889,-0.58 v 0 c -2.036,0 -3.889,0.315 -5.4,1.409"
       transform="matrix(1.3333333,0,0,-1.3333333,5380,816)"
       style="fill:url(#linearGradient198);stroke:none" />
  </g>
</svg>
